<?xml version="1.0" encoding="UTF-8"?>
<!DOCTYPE svg PUBLIC "-//W3C//DTD SVG 1.1//EN" "http://www.w3.org/Graphics/SVG/1.1/DTD/svg11.dtd">
<!-- Creator: CorelDRAW 2018 (64-Bit Evaluation Version) -->
<svg xmlns="http://www.w3.org/2000/svg" xml:space="preserve" width="1.2528in" height="1.61849in" version="1.1" style="shape-rendering:geometricPrecision; text-rendering:geometricPrecision; image-rendering:optimizeQuality; fill-rule:evenodd; clip-rule:evenodd"
viewBox="0 0 133.05 171.88"
 xmlns:xlink="http://www.w3.org/1999/xlink">
 <defs>
  <style type="text/css">
   <![CDATA[
    .fil1 {fill:#373435}
    .fil0 {fill:#2B72EE}
   ]]>
  </style>
 </defs>
 <g id="Layer_x0020_1">
  <metadata id="CorelCorpID_0Corel-Layer"/>
  <g id="_2403071855152">
   <path class="fil0" d="M19.53 116.49c6.5,-7.51 29.98,-28.4 30.89,-31.44 0.34,-1.13 -2.88,-4.17 -3.78,-6.07 -6.49,-13.8 -0.26,-27.63 12.1,-32.72 8.85,-3.65 18.39,-2.52 25.3,4.5 4.8,4.87 7.68,11.92 7.68,19.18 0,3.74 -2.57,9.7 -4.97,12.59 -2.42,3.01 -2.57,2.75 1.49,6.19 2.05,1.74 8.75,8.82 10.06,8.82 1.35,0 5.97,-7.37 6.61,-8.44 2.44,-4.86 3.99,-9.91 4.69,-14.96 0.97,-7.04 0.28,-14.09 -1.99,-20.59 -11.33,-32.41 -49.52,-37.36 -72.5,-12.65 -10.84,11.96 -12.08,29.18 -6.4,43.49 0.63,1.21 1.38,3.27 0.38,4.4 -2.02,2.29 -7.29,7.44 -9.76,8.75 -8.54,-16.21 -11.34,-35.73 -3.12,-52.52 8.03,-16.41 25.73,-31.33 43.04,-33.05 2.99,-0.3 2.09,0.19 2.09,-11.97 -9,0.2 -22.7,5.12 -32.46,11.63 -13.01,8.69 -22.1,21.39 -26.51,35.58 -5.99,19.28 -0.65,58.53 17.18,69.29z"/>
   <path class="fil1" d="M70.48 0.01c64.5,5.19 87.58,89.02 28.51,126.01 -4.15,2.6 -7.22,6.15 -7.15,1.09 0.05,-3.24 0.1,-6.49 0.15,-9.73 51.85,-38.13 25.5,-98.51 -16.55,-104.23 -2.24,-0.3 -4.59,-0.64 -4.61,-1.64 -0.01,-0.56 -0.04,-1.12 -0.05,-1.69 -0.1,-3.27 -0.2,-6.55 -0.3,-9.82z"/>
   <polygon class="fil1" points="71.09,111.12 73.24,162.42 66.08,171.88 58.93,162.42 61.4,111.12 55.57,111.12 58.32,97.66 73.86,97.66 76.6,111.12 "/>
  </g>
 </g>
</svg>
